<svg width="100%" height="100%" viewBox="0 0 24 25" fill="none" xmlns="http://www.w3.org/2000/svg">
    <path fill-rule="evenodd" clip-rule="evenodd"
          d="M11.8074 24.7777C11.8074 21.6224 10.6271 18.8647 8.27058 16.5086C5.91406 14.1525 3.15582 12.9723 0 12.9723V12.5872C3.15582 12.5872 5.91406 11.4071 8.27058 9.04686C10.5788 6.72689 11.7585 4.03348 11.8059 0.970531C11.8076 0.864185 11.8936 0.77771 12 0.77771C12.1064 0.77771 12.1924 0.864194 12.1941 0.970541C12.2413 4.04547 13.421 6.73887 15.7294 9.04686C18.0859 11.403 20.8442 12.5831 24 12.5831V12.9682C20.8442 12.9682 18.0859 14.1483 15.7294 16.5044C13.3729 18.8647 12.1926 21.6224 12.1926 24.7777"
          fill="white"/>
</svg>
