<svg width="64" height="12" viewBox="0 0 64 12" fill="none" xmlns="http://www.w3.org/2000/svg">
    <path d="m26.738 9.5-3.52-7.741a.343.343 0 0 0-.628 0L19.07 9.5a.234.234 0 0 0 .21.327h1.316a.282.282 0 0 0 .263-.179l.44-1.112h3.22l.441 1.112a.285.285 0 0 0 .264.18h1.305a.234.234 0 0 0 .209-.328zm-3.834-4.988 1.006 2.495H21.9l1.004-2.495zM30.99 1.703c-1.514 0-2.586 1.005-2.586 2.244 0 .998.593 1.746 1.59 2.245.997.499 1.658.711 1.658 1.246 0 .413-.41.748-.915.748h-2.232a.22.22 0 0 0-.22.22v1.203a.22.22 0 0 0 .22.22h2.386c1.515 0 2.593-.976 2.593-2.324 0-1.195-.92-1.944-1.709-2.281-.726-.314-1.699-.752-1.699-1.381 0-.307.285-.6.79-.6h2.27a.22.22 0 0 0 .22-.22V1.92a.22.22 0 0 0-.22-.22l-2.145.002zM37.715 1.703H36.51a.224.224 0 0 0-.224.224v7.678a.224.224 0 0 0 .224.223h4.253a.224.224 0 0 0 .222-.223V8.377a.224.224 0 0 0-.222-.224h-2.825V1.927a.224.224 0 0 0-.223-.224zM43.288 1.927v7.678a.224.224 0 0 0 .223.223h4.507a.224.224 0 0 0 .223-.223V8.377a.224.224 0 0 0-.223-.224H44.94V6.535h2.57a.222.222 0 0 0 .224-.223V5.22a.224.224 0 0 0-.224-.223h-2.57V3.242h3.078a.224.224 0 0 0 .223-.224v-1.09a.224.224 0 0 0-.223-.225h-4.51a.223.223 0 0 0-.22.224zM61.334 7.035a2.664 2.664 0 0 0 2.665-2.715c-.027-1.465-1.285-2.616-2.753-2.616h-2.42a.224.224 0 0 0-.224.224v7.678a.224.224 0 0 0 .224.223h1.206a.224.224 0 0 0 .223-.223V7.035h1.079zm-.088-3.79a1.125 1.125 0 1 1 0 2.249h-.991v-2.25h.99zM50.886 1.927v7.678a.224.224 0 0 0 .137.206.223.223 0 0 0 .086.017h4.506a.224.224 0 0 0 .224-.223V8.377a.224.224 0 0 0-.224-.224h-3.077V6.535h2.57a.223.223 0 0 0 .223-.22V5.22a.224.224 0 0 0-.224-.223h-2.569V3.242h3.077a.224.224 0 0 0 .224-.224v-1.09a.224.224 0 0 0-.224-.225h-4.506a.223.223 0 0 0-.223.224z" fill="#221714"/>
    <path d="M17.18 3.349V.473A.473.473 0 0 0 16.705 0H9.014a.474.474 0 0 0-.473.473v2.876a.473.473 0 0 1-.472.473H3.312a.473.473 0 0 0-.473.473V7.17a.474.474 0 0 1-.472.474H.474A.473.473 0 0 0 0 8.117v2.875a.473.473 0 0 0 .474.473h1.893a.472.472 0 0 0 .472-.473V8.117a.473.473 0 0 1 .473-.473H8.07a.473.473 0 0 0 .472-.474V4.295a.473.473 0 0 1 .473-.473h7.692a.473.473 0 0 0 .473-.473" fill="#406BFF"/>
</svg>
