<svg width="100%" height="100%" viewBox="0 0 166 165" fill="none" xmlns="http://www.w3.org/2000/svg">
    <path d="M81.5804 33.3326L93.4843 38.016L81.5804 42.3873L77.398 51.442L71.6069 42.3873L60.99 38.016L71.6069 33.3326L77.398 22.0923L81.5804 33.3326Z"
          fill="#74E897"/>
    <path d="M124.556 71.0679L136.46 75.7514L124.556 80.1226L120.374 89.1773L114.583 80.1226L103.966 75.7514L114.583 71.0679L120.374 59.8276L124.556 71.0679Z"
          fill="#74E897"/>
    <path d="M139.26 129.946L146.94 132.957L139.26 135.767L136.561 141.588L132.825 135.767L125.976 132.957L132.825 129.946L136.561 122.72L139.26 129.946Z"
          fill="#74E897"/>
    <path d="M21.8645 120.512L29.5444 123.522L21.8645 126.332L19.1661 132.153L15.43 126.332L8.58032 123.522L15.43 120.512L19.1661 113.286L21.8645 120.512Z"
          fill="#74E897"/>
    <path d="M89.062 91.3629L107.11 98.3881L89.062 104.945L82.7209 118.527L73.9409 104.945L57.8442 98.3881L73.9409 91.3629L82.7209 74.5024L89.062 91.3629Z"
          fill="#74E897"/>
</svg>
