<svg width="100%" height="100%" viewBox="0 0 114 40" fill="none" xmlns="http://www.w3.org/2000/svg">
    <path d="M5.48657 0.822266H109.166C111.695 0.822266 113.751 2.87862 113.751 5.40894V34.4578C113.751 36.9882 111.695 39.0445 109.166 39.0445H5.48657C2.95761 39.0445 0.902344 36.9882 0.902344 34.4578V5.40894C0.902344 2.87862 2.95761 0.822266 5.48657 0.822266Z"
          fill="#1E1F21"/>
    <path fill-rule="evenodd" clip-rule="evenodd"
          d="M22.8896 11.0199C23.6307 10.0949 24.1349 8.83358 23.9974 7.54932C22.9278 7.59518 21.583 8.29083 20.8114 9.20052C20.1314 10.0032 19.5201 11.3104 19.6729 12.5411C20.8801 12.6329 22.1179 11.9296 22.8896 11.0199ZM25.6024 19.0619C25.5798 16.3695 27.7683 15.0385 27.9338 14.9378L27.9404 14.9339C26.6568 13.0686 24.6703 12.8087 23.975 12.7858C22.9559 12.6782 21.954 13.0771 21.1355 13.4031C20.6162 13.6098 20.1707 13.7872 19.8416 13.7872C19.4665 13.7872 19.0063 13.6025 18.4905 13.3955C17.819 13.126 17.0533 12.8187 16.2582 12.8316C14.4474 12.8622 12.7436 13.9095 11.8192 15.5454C9.90142 18.8708 11.3302 23.7632 13.1715 26.454C14.096 27.7689 15.1656 29.2443 16.5791 29.1908C17.218 29.1659 17.6723 28.9744 18.1418 28.7764C18.6828 28.5483 19.2442 28.3116 20.1319 28.3116C20.9757 28.3116 21.5138 28.5414 22.0303 28.762C22.5241 28.9728 22.9979 29.1751 23.6999 29.1602C25.1822 29.1372 26.1067 27.8377 27.0006 26.5076C28.0626 25.0016 28.4905 23.5109 28.5057 23.4345L28.5041 23.4338C28.4171 23.3996 25.6327 22.3045 25.6024 19.0619ZM43.6342 25.0792H45.5595L41.9151 13.7883H39.6688L36.0396 25.0792H37.9115L38.9124 21.7615H42.5798L43.6342 25.0792ZM42.2655 20.3702L41.3104 17.4271C41.2111 17.1213 41.0201 16.418 40.7451 15.302H40.7069C40.5922 15.7836 40.4165 16.4945 40.172 17.4271L39.2323 20.3702H42.2655ZM53.7576 24.1925C54.514 23.3898 54.8884 22.2966 54.8884 20.913C54.8884 19.6669 54.5675 18.6732 53.9104 17.9087C53.2686 17.1519 52.474 16.7697 51.5113 16.7697C50.2888 16.7697 49.372 17.2589 48.7684 18.2298H48.7378L48.6385 16.9379H47.0493C47.0952 17.8552 47.1181 18.742 47.1181 19.6134V28.3816H48.9289V24.1084C49.4026 24.8805 50.1742 25.2627 51.2515 25.2627C52.2448 25.2627 53.0852 24.911 53.7576 24.1925ZM53.0471 20.9741C53.0471 20.179 52.8714 19.5293 52.5123 19.0171C52.1226 18.482 51.5954 18.2144 50.9384 18.2144C50.4952 18.2144 50.0903 18.3673 49.7235 18.6578C49.3645 18.9559 49.12 19.3382 49.013 19.8198C48.9595 20.0414 48.929 20.2249 48.929 20.3702V21.7309C48.929 22.3195 49.1123 22.824 49.4714 23.2292C49.8305 23.6343 50.3042 23.8407 50.8849 23.8407C51.5649 23.8407 52.0921 23.5732 52.4741 23.0534C52.8561 22.5259 53.0471 21.8379 53.0471 20.9741ZM63.1089 24.1925C63.8652 23.3898 64.2396 22.2966 64.2396 20.913C64.2396 19.6669 63.9187 18.6732 63.2617 17.9087C62.6199 17.1519 61.8253 16.7697 60.8626 16.7697C59.6401 16.7697 58.7233 17.2589 58.1197 18.2298H58.0891L57.9898 16.9379H56.4006C56.4464 17.8552 56.4694 18.742 56.4694 19.6134V28.3816H58.2801V24.1084C58.7538 24.8805 59.5255 25.2627 60.6028 25.2627C61.5961 25.2627 62.4365 24.911 63.1089 24.1925ZM62.3984 20.9741C62.3984 20.179 62.2227 19.5293 61.8636 19.0171C61.4739 18.482 60.9467 18.2144 60.2896 18.2144C59.8465 18.2144 59.4416 18.3673 59.0748 18.6578C58.7157 18.9559 58.4789 19.3382 58.3643 19.8198C58.3108 20.0414 58.2802 20.2249 58.2802 20.3702V21.7309C58.2802 22.3195 58.4636 22.824 58.8227 23.2292C59.1818 23.6343 59.6555 23.8407 60.2362 23.8407C60.9162 23.8407 61.451 23.5732 61.8254 23.0534C62.215 22.5259 62.3984 21.8379 62.3984 20.9741ZM73.7066 24.2612C74.3713 23.6572 74.7074 22.8775 74.7074 21.9143C74.7074 21.1346 74.4782 20.4772 74.0122 19.9497C73.5537 19.4222 72.8432 18.9636 71.8729 18.5737C71.0783 18.2603 70.5282 17.9698 70.2302 17.7022C69.8864 17.4194 69.7106 17.0448 69.7106 16.6014C69.7106 16.1963 69.8634 15.8599 70.1614 15.5771C70.5205 15.2713 71.0248 15.1108 71.6589 15.1108C72.4688 15.1108 73.187 15.2866 73.8288 15.6306L74.2872 14.1628C73.6072 13.8035 72.7515 13.6277 71.7277 13.6277C70.574 13.6277 69.6495 13.9259 68.9542 14.5145C68.259 15.1108 67.9075 15.8676 67.9075 16.7925C67.9075 18.2068 68.8931 19.2846 70.8872 20.0261C71.6131 20.2937 72.1326 20.5842 72.4459 20.8976C72.7515 21.211 72.9119 21.5932 72.9119 22.0519C72.9119 22.5641 72.7209 22.9769 72.3389 23.2827C71.9645 23.5884 71.4297 23.7413 70.7497 23.7413C69.8023 23.7413 68.9313 23.5044 68.1367 23.038L67.7165 24.544C68.45 25.0103 69.4203 25.2473 70.6351 25.2473C71.9493 25.2473 72.9731 24.9186 73.7066 24.2612ZM80.697 18.2986H78.7029V22.2508C78.7029 23.2522 79.0543 23.7568 79.7572 23.7568C80.0781 23.7568 80.3455 23.7262 80.5595 23.6727L80.6129 25.0487C80.2539 25.1786 79.7878 25.2474 79.2071 25.2474C78.4889 25.2474 77.9388 25.0257 77.5339 24.59C77.1289 24.1543 76.9303 23.4204 76.9303 22.3961V18.291H75.746V16.9379H76.9303V15.4472L78.7029 14.9121V16.9379H80.697V18.2986ZM88.5969 24.0243C89.3075 23.2216 89.6666 22.1972 89.6666 20.9436C89.6666 19.7281 89.3227 18.7343 88.6275 17.9699C87.9016 17.1748 86.9389 16.7773 85.747 16.7773C84.5093 16.7773 83.5237 17.1825 82.7902 17.9851C82.0644 18.7878 81.6976 19.8198 81.6976 21.0812C81.6976 22.289 82.0491 23.2904 82.7597 24.0778C83.4702 24.8652 84.4253 25.2627 85.6172 25.2627C86.8549 25.2627 87.8481 24.8499 88.5969 24.0243ZM87.7948 20.9817C87.7948 20.2326 87.6344 19.5981 87.3135 19.063C86.9314 18.4132 86.389 18.0921 85.6861 18.0921C84.9602 18.0921 84.4025 18.4132 84.0281 19.063C83.6996 19.5981 83.5468 20.2478 83.5468 21.0199C83.5468 21.7691 83.7072 22.4112 84.0281 22.9387C84.4178 23.5885 84.9679 23.9095 85.6708 23.9095C86.3584 23.9095 86.9009 23.5808 87.2982 22.9234C87.6267 22.373 87.7948 21.7309 87.7948 20.9817ZM94.9769 18.4821C95.1832 18.4821 95.3742 18.4973 95.5499 18.5279L95.5423 16.8003C95.4124 16.785 95.2596 16.7697 95.0915 16.7697C94.6255 16.7697 94.19 16.9149 93.785 17.2054C93.3724 17.5265 93.0745 17.9622 92.8835 18.4973H92.83L92.7612 16.9379H91.1873C91.2255 17.7023 91.2408 18.5585 91.2408 19.4988V25.0792H93.0515V20.806C93.0515 20.1638 93.2044 19.6211 93.5023 19.2006C93.8461 18.719 94.3428 18.4821 94.9769 18.4821ZM103.633 20.6224C103.633 20.9435 103.61 21.2187 103.565 21.4404H98.14C98.1629 22.243 98.4227 22.8622 98.9269 23.2827C99.3853 23.6573 99.9736 23.8484 100.699 23.8484C101.502 23.8484 102.235 23.7184 102.892 23.4662L103.175 24.7198C102.403 25.0562 101.494 25.2244 100.447 25.2244C99.1867 25.2244 98.1934 24.8498 97.4752 24.1083C96.757 23.3668 96.3979 22.3654 96.3979 21.1193C96.3979 19.8962 96.7341 18.8718 97.4065 18.0539C98.1094 17.1824 99.0568 16.7467 100.249 16.7467C101.418 16.7467 102.312 17.1824 102.908 18.0539C103.389 18.7572 103.633 19.6057 103.633 20.6224ZM101.556 18.7649C101.8 19.1547 101.922 19.6211 101.907 20.1562L98.1479 20.1485C98.2014 19.6058 98.3848 19.1318 98.6827 18.7419C99.0495 18.2527 99.5308 18.0081 100.119 18.0081C100.761 18.0081 101.242 18.2603 101.556 18.7649Z"
          fill="#8C8C8C"/>
</svg>
