<svg width="104" height="35" viewBox="0 0 104 35" fill="none" xmlns="http://www.w3.org/2000/svg">
<path fill-rule="evenodd" clip-rule="evenodd" d="M51.8098 0H103.62V3.45613H51.8098V0ZM20.7154 28.9972H24.0431C24.2785 30.8698 25.0275 32.4213 28.1733 32.4213C30.2277 32.4213 31.683 31.2764 31.683 29.5644C31.683 27.8523 30.8269 27.1996 27.8095 26.7074C23.369 26.1082 21.2611 24.76 21.2611 21.2825C21.2611 18.2437 23.8612 15.9538 27.7239 15.9538C31.5867 15.9538 34.1119 17.7729 34.4757 21.3253H31.3085C30.966 19.3779 29.8532 18.5433 27.7239 18.5433C25.5946 18.5433 24.5246 19.5598 24.5246 20.9829C24.5246 22.4916 25.1452 23.2406 28.3659 23.7114C32.7316 24.3106 34.9893 25.5518 34.9893 29.2648C34.9893 32.4855 32.2608 35 28.1626 35C23.1015 35 20.9722 32.4855 20.7047 28.9758L20.7154 28.9972ZM6.35585 16.2106H10.989L17.2699 34.7646H13.8138L12.2944 30.185H4.94344L3.45613 34.7646H0L6.35585 16.2106ZM5.76735 27.6597H11.4705L8.63497 19.0355L5.76735 27.6597ZM43.8811 16.1999H40.4357V34.7646H51.8099V32.0147H43.8811V16.1999ZM56.1969 16.1999H67.8065V18.9178H59.653V24.011H66.1908V26.6111H59.653V32.0361H67.8065V34.7646H56.1969V16.1999ZM85.0764 16.1999H73.4669V34.7646H85.0764V32.0361H76.923V26.6111H83.4607V24.011H76.923V18.9178H85.0764V16.1999ZM90.7689 16.1999H96.7395C100.891 16.1999 103.62 18.0404 103.62 21.9352V22.0422C103.62 25.9691 100.784 27.7025 96.8144 27.7025H94.2143V34.7646H90.7582V16.1999H90.7689ZM96.7395 25.2094C99.0294 25.2094 100.249 24.0966 100.249 22.0422V21.9352C100.249 19.731 98.9545 18.875 96.7395 18.875H94.225V25.2094H96.7395ZM17.2699 6.91226H0V10.3684H17.2699V6.91226ZM17.27 3.45613H51.8099V6.91226H17.27V3.45613Z" fill="white"/>
</svg>
