<svg width="100%" height="100%" viewBox="0 0 114 39" fill="none" xmlns="http://www.w3.org/2000/svg">
    <path d="M5.3811 0.737061H109.061C111.59 0.737061 113.645 2.79342 113.645 5.32373V34.3726C113.645 36.903 111.59 38.9593 109.061 38.9593H5.3811C2.85214 38.9593 0.796875 36.903 0.796875 34.3726V5.32373C0.796875 2.79342 2.85214 0.737061 5.3811 0.737061Z"
          fill="#1E1F21"/>
    <path fill-rule="evenodd" clip-rule="evenodd"
          d="M38.3848 18.7698V20.3023H42.0586C41.9515 21.1704 41.6623 21.8027 41.2232 22.2421C40.6876 22.7779 39.8522 23.3673 38.3848 23.3673C36.1247 23.3673 34.3574 21.5455 34.3574 19.2842C34.3574 17.023 36.1247 15.2012 38.3848 15.2012C39.6058 15.2012 40.4948 15.6834 41.1589 16.2943L42.2407 15.2119C41.3196 14.3331 40.0985 13.658 38.3848 13.658C35.2893 13.658 32.6758 16.1871 32.6758 19.2842C32.6758 22.3814 35.2786 24.9105 38.3848 24.9105C40.0557 24.9105 41.3196 24.364 42.305 23.3352C43.3225 22.3171 43.6332 20.8917 43.6332 19.7451C43.6332 19.3914 43.601 19.0592 43.5475 18.7806L38.3848 18.7698ZM47.8221 17.6661C45.8192 17.6661 44.1911 19.1878 44.1911 21.2883C44.1911 23.3781 45.8192 24.9106 47.8221 24.9106C49.8251 24.9106 51.4531 23.3781 51.4531 21.2883C51.4531 19.1985 49.8251 17.6661 47.8221 17.6661ZM52.1171 21.2883C52.1171 19.1878 53.7452 17.6661 55.7481 17.6661C57.7511 17.6661 59.3792 19.1985 59.3792 21.2883C59.3792 23.3781 57.7511 24.9106 55.7481 24.9106C53.7452 24.9106 52.1171 23.3781 52.1171 21.2883ZM53.7014 21.2882C53.7014 22.5742 54.6547 23.4852 55.7472 23.4852C56.8398 23.4852 57.7823 22.5742 57.793 21.2882C57.793 19.9808 56.8505 19.0913 55.7472 19.0913C54.644 19.0913 53.7014 19.9808 53.7014 21.2882ZM65.4736 18.4805H65.4201C65.0666 18.0519 64.3811 17.6661 63.5135 17.6661C61.7033 17.6661 60.0431 19.2628 60.0431 21.299C60.0431 23.3245 61.7033 24.9106 63.5135 24.9106C64.3811 24.9106 65.0666 24.5248 65.4201 24.0854H65.4736V24.6105C65.4736 25.993 64.7346 26.7324 63.5456 26.7324C62.5709 26.7324 61.9711 26.0358 61.7248 25.4464L60.343 26.0251C60.7394 26.9896 61.7997 28.1684 63.5563 28.1684C65.4201 28.1684 66.9946 27.0753 66.9946 24.3962V17.8911H65.4843L65.4736 18.4805ZM61.6384 21.299C61.6384 22.5635 62.5595 23.4852 63.652 23.4852C64.7338 23.4852 65.58 22.5742 65.58 21.299C65.58 20.0237 64.7338 19.0913 63.652 19.0913C62.5595 19.0913 61.6384 20.0237 61.6384 21.299ZM45.7754 21.2882C45.7754 22.5742 46.7287 23.4852 47.8212 23.4852C48.9137 23.4852 49.8563 22.5742 49.867 21.2882C49.867 19.9808 48.9137 19.0913 47.8212 19.0913C46.718 19.0913 45.7754 19.9808 45.7754 21.2882ZM73.8486 17.6767C75.723 17.6767 76.6441 19.1663 76.944 19.9808L77.1154 20.388L72.274 22.392C72.6489 23.1101 73.2273 23.4851 74.0306 23.4851C74.834 23.4851 75.4017 23.0886 75.8087 22.4885L77.0404 23.3137C76.6441 23.9031 75.6801 24.9212 74.0199 24.9212C71.9634 24.9212 70.4317 23.3244 70.4317 21.2989C70.4317 19.1449 71.9848 17.6767 73.8486 17.6767ZM72.0173 21.1811C71.9744 19.7772 73.0991 19.0699 73.9131 19.0699C74.5451 19.0699 75.0806 19.3807 75.252 19.8415L72.0173 21.1811ZM69.6612 24.6962H68.0759V14.0545H69.6612V24.6962ZM84.3983 14.0545H80.5959V24.6962H82.1811V20.6667H84.3983C86.1549 20.6667 87.8901 19.3914 87.8901 17.3552C87.8901 15.3297 86.1549 14.0545 84.3983 14.0545ZM82.1824 19.1663H84.4424C85.6314 19.1663 86.3061 18.1804 86.3061 17.3444C86.3061 16.5085 85.6314 15.5226 84.4424 15.5226H82.1824V19.1663ZM88.7704 24.6962H90.3556V14.0545H88.7704V24.6962ZM91.4148 19.2735C91.9075 18.1482 93.1072 17.6445 94.2533 17.6445C96.0741 17.6445 97.488 18.7055 97.4773 20.5916V24.6747H95.9456V23.8495H95.892C95.5279 24.4068 94.9388 24.889 93.8677 24.889C92.4645 24.889 91.222 23.9781 91.222 22.5528C91.222 20.9882 92.7644 20.1523 94.2854 20.1523C95.0459 20.1523 95.6564 20.3987 95.9456 20.5595V20.4523C95.9349 19.5735 95.0994 19.0806 94.2747 19.0806C93.6856 19.0806 93.1286 19.2735 92.8287 19.8629L91.4148 19.2735ZM94.0597 23.4852C93.5349 23.4852 92.8173 23.228 92.8173 22.585C92.8173 21.7598 93.717 21.449 94.4989 21.449C95.1951 21.449 95.5272 21.599 95.9449 21.8027C95.8271 22.7886 94.9809 23.4852 94.0597 23.4852ZM101.247 22.4992L103.068 17.8803V17.891H104.835L100.465 27.9326H98.8046L100.422 24.3318L97.5942 17.8803H99.308L101.193 22.4992H101.247Z"
          fill="#8C8C8C"/>
    <path d="M10.9638 10.411C10.7496 10.636 10.6211 10.9897 10.6211 11.4398V27.6542C10.6211 28.1043 10.7496 28.4579 10.9638 28.683L11.0174 28.7366L20.1003 19.6488V19.4345L11.0174 10.3467L10.9638 10.411Z"
          fill="url(#paint0_linear_411_17060)"/>
    <path d="M23.1221 22.6816L20.1016 19.6488V19.4344L23.1328 16.4016L23.197 16.4445L26.7852 18.4807C27.8135 19.0594 27.8135 20.0131 26.7852 20.6026L23.197 22.6387L23.1221 22.6816Z"
          fill="url(#paint1_linear_411_17060)"/>
    <path d="M23.1968 22.6389L20.1013 19.5417L10.9648 28.6831C11.2969 29.0368 11.8646 29.0904 12.4858 28.726L23.1968 22.6389Z"
          fill="url(#paint2_linear_411_17060)"/>
    <path d="M23.1968 16.4552L12.4858 10.3681C11.8539 10.0144 11.2969 10.0573 10.9648 10.4109L20.1013 19.5523L23.1968 16.4552Z"
          fill="url(#paint3_linear_411_17060)"/>
    <path opacity="0.2"
          d="M23.1218 22.5745L12.4858 28.6187C11.886 28.9616 11.3612 28.9402 11.0184 28.6294L10.9648 28.683L11.0184 28.7366C11.3612 29.0474 11.8967 29.0688 12.4858 28.7259L23.1968 22.6388L23.1218 22.5745Z"
          fill="#1E1F21"/>
    <path opacity="0.12" fill-rule="evenodd" clip-rule="evenodd"
          d="M23.1214 22.5745L26.7738 20.4954C27.2451 20.2275 27.5022 19.8953 27.545 19.5416C27.545 19.9274 27.288 20.3132 26.7738 20.6026L23.1856 22.6388L23.1214 22.5745ZM10.6211 27.5471C10.6211 27.9972 10.7496 28.3508 10.9638 28.5759L11.0174 28.6295L10.9638 28.683C10.7496 28.458 10.6211 28.1043 10.6211 27.6542V27.5471Z"
          fill="#1E1F21"/>
    <path opacity="0.25"
          d="M12.4848 10.4647L26.7733 18.588C27.2339 18.8559 27.5017 19.1881 27.5445 19.5417C27.5445 19.1559 27.2874 18.7701 26.7733 18.4808L12.4848 10.3575C11.4566 9.77881 10.6211 10.2611 10.6211 11.4292V11.5363C10.6211 10.3682 11.4566 9.88597 12.4848 10.4647Z"
          fill="white"/>
    <defs>
        <linearGradient id="paint0_linear_411_17060" x1="16.1141" y1="-0.667917" x2="1.57005" y2="3.19846"
                        gradientUnits="userSpaceOnUse">
            <stop stop-color="#00A0FF"/>
            <stop offset="0.007" stop-color="#00A1FF"/>
            <stop offset="0.26" stop-color="#00BEFF"/>
            <stop offset="0.512" stop-color="#00D2FF"/>
            <stop offset="0.76" stop-color="#00DFFF"/>
            <stop offset="1" stop-color="#00E3FF"/>
        </linearGradient>
        <linearGradient id="paint1_linear_411_17060" x1="28.111" y1="12.0772" x2="10.3767" y2="12.0772"
                        gradientUnits="userSpaceOnUse">
            <stop stop-color="#FFE000"/>
            <stop offset="0.409" stop-color="#FFBD00"/>
            <stop offset="0.775" stop-color="#FFA500"/>
            <stop offset="1" stop-color="#FF9C00"/>
        </linearGradient>
        <linearGradient id="paint2_linear_411_17060" x1="10.6918" y1="14.8012" x2="-0.993399" y2="34.4591"
                        gradientUnits="userSpaceOnUse">
            <stop stop-color="#FF3A44"/>
            <stop offset="1" stop-color="#C31162"/>
        </linearGradient>
        <linearGradient id="paint3_linear_411_17060" x1="3.83029" y1="7.87726" x2="9.04424" y2="16.6565"
                        gradientUnits="userSpaceOnUse">
            <stop stop-color="#32A071"/>
            <stop offset="0.069" stop-color="#2DA771"/>
            <stop offset="0.476" stop-color="#15CF74"/>
            <stop offset="0.801" stop-color="#06E775"/>
            <stop offset="1" stop-color="#00F076"/>
        </linearGradient>
    </defs>
</svg>
