<svg width="100%" height="100%" viewBox="0 0 16 16" fill="none" xmlns="http://www.w3.org/2000/svg">
    <path fill-rule="evenodd" clip-rule="evenodd"
          d="M16 8C16 12.4183 12.4183 16 8 16C3.58172 16 0 12.4183 0 8C0 3.58172 3.58172 0 8 0C12.4183 0 16 3.58172 16 8ZM4.93896 1.84755H11.5188V3.65889H4.93896V1.84755ZM9.33114 10.6863L10.1541 12.8551H11.044L8.3838 5.81875H7.60872L4.93896 12.8551H5.80974L6.62311 10.6863H9.33114ZM8.21156 7.49688C8.25622 7.63427 8.28811 7.72913 8.30725 7.78147L9.07277 9.90121H6.91018L7.68527 7.78147C7.71078 7.70296 7.73949 7.6081 7.77139 7.49688C7.80966 7.38566 7.84475 7.26462 7.87665 7.13378C7.91492 6.99639 7.95001 6.86227 7.98191 6.73142C8.00742 6.80993 8.03932 6.92442 8.0776 7.07489C8.12225 7.21883 8.16691 7.35949 8.21156 7.49688Z"
          fill="white"/>
</svg>
